<?xml version="1.0" encoding="utf-8"?>
<!-- Generator: Adobe Illustrator 16.0.0, SVG Export Plug-In . SVG Version: 6.00 Build 0)  -->
<!DOCTYPE svg PUBLIC "-//W3C//DTD SVG 1.1//EN" "http://www.w3.org/Graphics/SVG/1.1/DTD/svg11.dtd">
<svg version="1.1" id="Layer_1" xmlns="http://www.w3.org/2000/svg" xmlns:xlink="http://www.w3.org/1999/xlink" x="0px" y="0px"
	 width="188.265px" height="134.606px" viewBox="0 0 188.265 134.606" enable-background="new 0 0 188.265 134.606"
	 xml:space="preserve">
<g id="XMLID_7_">
	<g>
		<path fill="#FFFFFF" d="M180.416,94.721c0.67,0.58,0.51,2.55,0.271,3.69c-0.721,3.38-2.28,6.85-4,10
			c-0.431,0.8-0.87,1.57-1.311,2.32c-1.1,1.86-2.29,3.85-3.729,5.25c-1.08,1.06-5.271,6.11-5.7,3.35c-0.29-1.8,2.66-3.84,3.64-4.84
			c1.86-1.91,3.66-4.33,4.94-6.94c0.93-1.9,1.899-3.81,2.6-5.81c0.67-1.94,0.851-3.95,1.62-5.87
			C179.066,95.071,179.946,94.311,180.416,94.721z"/>
		<path fill="#FFFFFF" d="M163.036,120.751c0.59,0.25,0.83,0.79,0.79,1.34c-0.02,0.38-0.19,0.77-0.48,1.06
			c-0.619,0.62-1.64,0.74-2.3,0.07c-0.319-0.33-0.54-1.04-0.37-1.47C160.977,121.001,162.256,120.401,163.036,120.751z"/>
		<path fill="#FFFFFF" d="M160.687,65.831c0.069,0.23,0.1,0.44,0.069,0.63c-0.16,1.26-1.46,1.85-2.489,2.53
			c-1.78,1.16-3.391,2.46-5.23,3.57c-1.02,0.61-1.9,1.36-2.82,2.07c-3.909,2.98-8.04,5.96-12.17,8.7c-2.02,1.33-4.5,4.14-6.89,1.64
			c-1.46-1.53,2.05-2.83,3.229-3.64c2.171-1.51,4.351-3.01,6.511-4.53c2.58-1.8,5.199-3.56,7.779-5.36
			c1.971-1.37,3.98-2.7,5.881-4.14c1.979-1.5-0.431-3.1-1.671-4.31c-4.09-4.01-8.619-7.71-13.05-11.44
			c-1.95-1.64-6.34-3.79-6.17-6.44c0.03-0.47,0.37-0.71,0.93-0.79c2.711-0.42,4.75,2.23,6.48,3.6c2.28,1.81,4.77,3.41,6.9,5.36
			c1.63,1.5,3.38,2.9,5.02,4.39c1.63,1.47,2.95,3.17,4.57,4.65C158.756,63.401,160.236,64.311,160.687,65.831z"/>
		<path fill="#FFFFFF" d="M125.807,45.891c1.22,0.34,2.17,1.7,1.56,2.73c-0.61,1.03-1.81,1.64-2.76,2.39
			c-1.011,0.8-1.92,1.71-2.78,2.63c-2.63,2.83-5.21,5.64-7.94,8.38c-2.409,2.42-4.649,4.98-7.04,7.42c-2.17,2.22-4.31,4.59-6.6,6.7
			c-1.54,1.43-3,2.9-4.43,4.42c-1.16,1.25-2.62,2.73-4.641,2.47c-1.239-0.16-2.06-1.54-1.09-2.54c1.67-1.73,3.34-3.47,5.141-5.1
			c5.47-4.95,10.33-10.58,15.479-15.81c2.89-2.93,5.49-6.09,8.38-9.02c1.41-1.42,3.53-3.99,5.561-4.66
			C125.036,45.771,125.437,45.781,125.807,45.891z"/>
		<path fill="#FFFFFF" d="M89.706,45.741c1.29,1.59-2.04,2.73-3.17,3.5c-2.09,1.41-4.19,2.82-6.27,4.25c-2.48,1.7-5,3.34-7.48,5.03
			c-1.9,1.29-3.83,2.53-5.66,3.89c-1.91,1.41,0.26,3.11,1.36,4.37c3.63,4.17,7.68,8.05,11.64,11.96c1.75,1.72,5.74,4.04,5.46,6.69
			c-0.05,0.47-0.38,0.69-0.899,0.75c-2.551,0.3-4.33-2.42-5.88-3.87c-2.04-1.9-4.29-3.6-6.181-5.63c-1.45-1.57-3.02-3.03-4.479-4.59
			c-1.46-1.54-2.61-3.29-4.051-4.83c-1.06-1.12-2.39-2.1-2.75-3.63c-0.05-0.23-0.069-0.45-0.039-0.64
			c0.22-1.24,1.449-1.78,2.439-2.42c1.71-1.08,3.271-2.32,5.03-3.34c0.97-0.57,1.83-1.29,2.72-1.96c3.771-2.81,7.75-5.62,11.72-8.18
			C85.156,45.841,87.596,43.141,89.706,45.741z"/>
		<path fill="#FCA8C6" d="M181.246,36.871c3.03,18.2,6.021,36.18,5.09,54.67c-0.18,3.63-0.729,7.36-1.479,10.93
			c-2.34,11.07-9.3,19.13-19.8,24.65c-2.521,1.32-5.44,1.83-8.24,2.43c-4.36,0.94-8.83,1.46-13.311,1.41
			c-7.92-0.08-15.71,0.52-23.62,0.79c-7.17,0.24-14.56-0.23-21.729-0.52c-4.311-0.18-8.61-0.53-12.92-0.75
			c-6.641-0.34-13.311-1.1-19.63-3.1c-6.88-2.18-14.03-4.83-19.601-9.27c-4.67-3.72-10.09-8.22-10.81-14.24
			c-0.03-0.23-0.04-0.47-0.05-0.7c-0.03-2.66,1.279-5.43-1.5-7.27c-1.971-1.31-5.101-0.75-7.351-0.91
			c-2.38-0.17-4.81-0.61-7.08-1.27c-4.13-1.2-8.37-3.28-11.37-6.22c-3.25-3.18-4.699-7.88-5.42-12.11
			c-1.33-7.7,0.851-15.43,3.15-22.75c0.57-1.82,1.44-3.38,2.23-5.12c0.729-1.64,1.229-3.37,2.069-4.98
			c3.601-6.82,7.47-12.2,15.23-15.32c4.08-1.63,8.51-0.54,12.72-0.1c0.97,0.1,3.53,1.39,4.02-0.14c0.94-2.91,1.33-5.93,2.32-8.82
			c0.851-2.5,1.99-4.91,3.23-7.26c1.1-2.09,1.76-4.6,3.12-6.53c1.29-1.83,3.579-1.66,5.75-1.42c0.46,0.05,0.939-0.09,1.399-0.1
			c3.36-0.02,6.771,0.09,10.12,0.2c4.55,0.14,9.09,0.14,13.64,0.09c4.46-0.05,8.92-0.1,13.391-0.14
			c15.63-0.17,31.189-0.35,46.81-0.1c6.38,0.1,12.67-0.41,19.021-0.93c2.529-0.21,5.02,0.12,7.52,0c1.13-0.05,2.72-0.54,3.69,0.07
			c0.63,0.4,1.04,1.59,1.34,2.2c0.74,1.57,1.21,3.21,1.82,4.82c1.52,4.05,2.14,8.21,3.17,12.38
			C179.446,26.541,180.396,31.701,181.246,36.871z M180.687,98.411c0.239-1.14,0.399-3.11-0.271-3.69
			c-0.47-0.41-1.35,0.35-1.67,1.15c-0.77,1.92-0.95,3.93-1.62,5.87c-0.7,2-1.67,3.91-2.6,5.81c-1.28,2.61-3.08,5.03-4.94,6.94
			c-0.979,1-3.93,3.04-3.64,4.84c0.43,2.76,4.62-2.29,5.7-3.35c1.439-1.4,2.63-3.39,3.729-5.25c0.44-0.75,0.88-1.52,1.311-2.32
			C178.406,105.261,179.966,101.791,180.687,98.411z M163.826,122.091c0.04-0.55-0.2-1.09-0.79-1.34c-0.78-0.35-2.06,0.25-2.36,1
			c-0.17,0.43,0.051,1.14,0.37,1.47c0.66,0.67,1.681,0.55,2.3-0.07C163.636,122.861,163.807,122.471,163.826,122.091z
			 M160.756,66.461c0.03-0.19,0-0.4-0.069-0.63c-0.45-1.52-1.931-2.43-3.12-3.51c-1.62-1.48-2.94-3.18-4.57-4.65
			c-1.64-1.49-3.39-2.89-5.02-4.39c-2.131-1.95-4.62-3.55-6.9-5.36c-1.73-1.37-3.77-4.02-6.48-3.6c-0.56,0.08-0.899,0.32-0.93,0.79
			c-0.17,2.65,4.22,4.8,6.17,6.44c4.431,3.73,8.96,7.43,13.05,11.44c1.24,1.21,3.65,2.81,1.671,4.31c-1.9,1.44-3.91,2.77-5.881,4.14
			c-2.58,1.8-5.199,3.56-7.779,5.36c-2.16,1.52-4.34,3.02-6.511,4.53c-1.18,0.81-4.689,2.11-3.229,3.64
			c2.39,2.5,4.87-0.31,6.89-1.64c4.13-2.74,8.261-5.72,12.17-8.7c0.92-0.71,1.801-1.46,2.82-2.07c1.84-1.11,3.45-2.41,5.23-3.57
			C159.296,68.311,160.596,67.721,160.756,66.461z M127.366,48.621c0.61-1.03-0.34-2.39-1.56-2.73c-0.37-0.11-0.771-0.12-1.16,0.01
			c-2.03,0.67-4.15,3.24-5.561,4.66c-2.89,2.93-5.49,6.09-8.38,9.02c-5.149,5.23-10.01,10.86-15.479,15.81
			c-1.801,1.63-3.471,3.37-5.141,5.1c-0.97,1-0.149,2.38,1.09,2.54c2.021,0.26,3.48-1.22,4.641-2.47c1.43-1.52,2.89-2.99,4.43-4.42
			c2.29-2.11,4.43-4.48,6.6-6.7c2.391-2.44,4.631-5,7.04-7.42c2.73-2.74,5.311-5.55,7.94-8.38c0.86-0.92,1.77-1.83,2.78-2.63
			C125.557,50.261,126.756,49.651,127.366,48.621z M86.536,49.241c1.13-0.77,4.46-1.91,3.17-3.5c-2.11-2.6-4.55,0.1-6.49,1.35
			c-3.97,2.56-7.949,5.37-11.72,8.18c-0.89,0.67-1.75,1.39-2.72,1.96c-1.76,1.02-3.32,2.26-5.03,3.34
			c-0.99,0.64-2.22,1.18-2.439,2.42c-0.03,0.19-0.011,0.41,0.039,0.64c0.36,1.53,1.69,2.51,2.75,3.63
			c1.44,1.54,2.591,3.29,4.051,4.83c1.46,1.56,3.029,3.02,4.479,4.59c1.891,2.03,4.141,3.73,6.181,5.63
			c1.55,1.45,3.329,4.17,5.88,3.87c0.52-0.06,0.85-0.28,0.899-0.75c0.28-2.65-3.71-4.97-5.46-6.69c-3.96-3.91-8.01-7.79-11.64-11.96
			c-1.101-1.26-3.271-2.96-1.36-4.37c1.83-1.36,3.76-2.6,5.66-3.89c2.48-1.69,5-3.33,7.48-5.03
			C82.346,52.061,84.446,50.651,86.536,49.241z M38.416,43.991c0.32-1.65,1.05-3.25,0.97-4.96c-0.18-3.65-6.569-2.99-9.06-2.66
			c-3.8,0.5-7.08,2.31-9.49,5.07c-1.55,1.77-2.64,3.82-3.47,5.96c-2.07,5.3-4.13,10.95-4.7,16.6c-0.79,7.88,0.91,17.87,9.75,21.35
			c3.24,1.28,6.83,1.4,10.28,1.32c2.399-0.05,3.99,0.04,4.21-2.57c0.15-1.86-0.57-3.65-0.57-5.51c0.01-2.58,0-5.16,0.03-7.74
			c0.06-6.32,0.21-12.7,0.89-19.02C37.536,49.201,37.916,46.581,38.416,43.991z"/>
	</g>
	<g>
	</g>
</g>
</svg>
